<?xml version="1.0" encoding="UTF-8" ?>
<!DOCTYPE svg PUBLIC "-//W3C//DTD SVG 1.1//EN" "http://www.w3.org/Graphics/SVG/1.1/DTD/svg11.dtd">
<svg width="218pt" height="210pt" viewBox="0 0 218 210" version="1.1" xmlns="http://www.w3.org/2000/svg">
<g id="#595959ff">
<path fill="#595959" opacity="1.00" d=" M 0.00 0.00 L 218.00 0.00 L 218.00 210.00 L 0.00 210.00 L 0.00 0.00 M 77.29 8.03 C 53.48 71.71 29.41 135.30 5.61 198.98 C 25.58 198.97 45.54 199.09 65.50 198.92 C 68.50 188.23 71.67 177.59 74.96 166.98 C 97.37 167.00 119.78 167.03 142.18 166.96 C 145.27 177.59 148.79 188.10 151.51 198.83 C 172.03 199.21 192.56 198.93 213.09 198.96 C 189.37 135.34 165.19 71.88 141.65 8.19 C 120.21 7.77 98.74 8.08 77.29 8.03 Z" />
<path fill="#595959" opacity="1.00" d=" M 108.46 57.61 C 110.11 60.02 110.52 62.97 111.43 65.68 C 117.64 85.76 123.75 105.87 129.96 125.96 C 115.86 126.05 101.75 125.97 87.64 126.00 C 94.45 103.17 101.38 80.36 108.46 57.61 Z" />
</g>
<g id="#000000ff">
<path fill="#000000" opacity="1.00" d=" M 77.29 8.03 C 98.74 8.08 120.21 7.77 141.65 8.19 C 165.19 71.88 189.37 135.34 213.09 198.96 C 192.56 198.93 172.03 199.21 151.51 198.83 C 148.79 188.10 145.27 177.59 142.18 166.96 C 119.78 167.03 97.37 167.00 74.96 166.98 C 71.67 177.59 68.50 188.23 65.50 198.92 C 45.54 199.09 25.58 198.97 5.61 198.98 C 29.41 135.30 53.48 71.71 77.29 8.03 M 108.46 57.61 C 101.38 80.36 94.45 103.17 87.64 126.00 C 101.75 125.97 115.86 126.05 129.96 125.96 C 123.75 105.87 117.64 85.76 111.43 65.68 C 110.52 62.97 110.11 60.02 108.46 57.61 Z" />
</g>
</svg>
